Format : AVI
Format/Info : Audio Video Interleave
File size : 741 MiB
Duration : 1h 38mn
Overall bit rate : 1 049 Kbps
Writing application : VirtualDubMod 1.5.10.2 (build 2542/release)
Writing library : VirtualDub build 32839/release

Video
ID : 0
Format : MPEG-4 Visual
Format profile : Advanced Simple@L5
Format settings, BVOP : Yes
Format settings, QPel : No
Format settings, GMC : No warppoints
Format settings, Matrix : Custom
Codec ID : XVID
Codec ID/Hint : XviD
Duration : 1h 38mn
Bit rate : 907 Kbps
Width : 632 pixels
Height : 334 pixels
Display aspect ratio : 1.892
Frame rate : 25.000 fps
Color space : YUV
Chroma subsampling : 4:2:0
Bit depth : 8 bits
Scan type : Progressive
Bits/(Pixel*Frame) : 0.172
Stream size : 640 MiB (86%)
Writing library : XviD 1.2.1 (UTC 2008-12-04)

Audio
ID : 1
Format : MPEG Audio
Format version : Version 1
Format profile : Layer 3
Mode : Joint stereo
Codec ID : 55
Codec ID/Hint : MP3
Duration : 1h 38mn
Bit rate mode : Variable
Bit rate : 128 Kbps
Channel(s) : 2 channels
Sampling rate : 48.0 KHz
Stream size : 91.6 MiB (12%)
Alignment : Aligned on interleaves
Interleave, duration : 24 ms (0.60 video frame)
Interleave, preload duration : 142 ms
Writing library : LAME3.90.
Encoding settings : -m j -V 4 -q 2 -lowpass 17.6 --abr 128



 
http://www.imdb.com/title/tt1213648/







Users: 6.5/10 (1,250 votes) 16 reviews | Critics: 26 reviews

"London Boulevard" is the story of a man newly released from prison who falls in love with a reclusive young movie star and finds himself in a duel with a vicious gangster.
Director:
William Monahan
Writers:
William Monahan (screenplay), Ken Bruen (novel)
Stars:
Colin Farrell, Keira Knightley and Ray Winstone


